 PTC IGES file: nozzle.igs                                              S      1
1H,,1H;,6HNOZZLE,10Hnozzle.igs,                                         G      1
52HCreo Parametric by Parametric Technology Corporation,7H2013150,32,   G      2
38,7,38,15,6HNOZZLE,1.,2,2HMM,32768,0.5,15H20131017.164759,0.0107412,   G      3
107.416,7HFINRPU1,7HUnknown,10,0,15H20131017.164759;                    G      4
     314       1       1       1       0       0       0       001000200D      1
     314       0       1       1       0                   COLOR       1D      2
     314       2       1       1       0       0       0       001000200D      3
     314       0       8       1       0                   COLOR       2D      4
     124       3       1       1       0       0       0       001000000D      5
     124       0       0       1       0                   XFORM       1D      6
     100       4       1       1       0       0       5       001010000D      7
     100       0      -1       1       0                     ARC       1D      8
     110       5       1       1       0       0       0       001010000D      9
     110       0      -1       1       0                    LINE       1D     10
     124       6       1       1       0       0       0       001000000D     11
     124       0       0       1       0                   XFORM       2D     12
     100       7       1       1       0       0      11       001010000D     13
     100       0      -1       1       0                     ARC       2D     14
     110       8       1       1       0       0       0       001010000D     15
     110       0      -1       1       0                    LINE       2D     16
     124       9       1       1       0       0       0       001000000D     17
     124       0       0       1       0                   XFORM       3D     18
     100      10       1       1       0       0      17       001010000D     19
     100       0      -1       1       0                     ARC       3D     20
     124      11       1       1       0       0       0       001000000D     21
     124       0       0       1       0                   XFORM       4D     22
     100      12       1       1       0       0      21       001010000D     23
     100       0      -1       1       0                     ARC       4D     24
     124      13       1       1       0       0       0       001000000D     25
     124       0       0       2       0                   XFORM       5D     26
     100      15       1       1       0       0      25       001010000D     27
     100       0      -1       1       0                     ARC       5D     28
     124      16       1       1       0       0       0       001000000D     29
     124       0       0       2       0                   XFORM       6D     30
     100      18       1       1       0       0      29       001010000D     31
     100       0      -1       1       0                     ARC       6D     32
     124      19       1       1       0       0       0       001000000D     33
     124       0       0       2       0                   XFORM       7D     34
     100      21       1       1       0       0      33       001010000D     35
     100       0      -1       1       0                     ARC       7D     36
     124      22       1       1       0       0       0       001000000D     37
     124       0       0       2       0                   XFORM       8D     38
     100      24       1       1       0       0      37       001010000D     39
     100       0      -1       1       0                     ARC       8D     40
     124      25       1       1       0       0       0       001000000D     41
     124       0       0       2       0                   XFORM       9D     42
     100      27       1       1       0       0      41       001010000D     43
     100       0      -1       1       0                     ARC       9D     44
     124      28       1       1       0       0       0       001000000D     45
     124       0       0       2       0                   XFORM      10D     46
     100      30       1       1       0       0      45       001010000D     47
     100       0      -1       1       0                     ARC      10D     48
     110      31       1       1       0       0       0       001010000D     49
     110       0      -1       1       0                    LINE       3D     50
     110      32       1       1       0       0       0       001010000D     51
     110       0      -1       1       0                    LINE       4D     52
     124      33       1       1       0       0       0       001000000D     53
     124       0       0       2       0                   XFORM      11D     54
     100      35       1       1       0       0      53       001010000D     55
     100       0      -1       1       0                     ARC      11D     56
     110      36       1       1       0       0       0       001010000D     57
     110       0      -1       1       0                    LINE       5D     58
     124      37       1       1       0       0       0       001000000D     59
     124       0       0       2       0                   XFORM      12D     60
     100      39       1       1       0       0      59       001010000D     61
     100       0      -1       1       0                     ARC      12D     62
     110      40       1       1       0       0       0       001010000D     63
     110       0      -1       1       0                    LINE       6D     64
     124      41       1       1       0       0       0       001000000D     65
     124       0       0       2       0                   XFORM      13D     66
     100      43       1       1       0       0      65       001010000D     67
     100       0      -1       1       0                     ARC      13D     68
     124      44       1       1       0       0       0       001000000D     69
     124       0       0       2       0                   XFORM      14D     70
     100      46       1       1       0       0      69       001010000D     71
     100       0      -1       1       0                     ARC      14D     72
     124      47       1       1       0       0       0       001000000D     73
     124       0       0       3       0                   XFORM      15D     74
     100      50       1       1       0       0      73       001010000D     75
     100       0      -1       1       0                     ARC      15D     76
     124      51       1       1       0       0       0       001000000D     77
     124       0       0       3       0                   XFORM      16D     78
     100      54       1       1       0       0      77       001010000D     79
     100       0      -1       1       0                     ARC      16D     80
     124      55       1       1       0       0       0       001000000D     81
     124       0       0       2       0                   XFORM      17D     82
     100      57       1       1       0       0      81       001010000D     83
     100       0      -1       1       0                     ARC      17D     84
     110      58       1       1       0       0       0       001010000D     85
     110       0      -1       2       0                    LINE       7D     86
     124      60       1       1       0       0       0       001000000D     87
     124       0       0       2       0                   XFORM      18D     88
     100      62       1       1       0       0      87       001010000D     89
     100       0      -1       1       0                     ARC      18D     90
     110      63       1       1       0       0       0       001010000D     91
     110       0      -1       2       0                    LINE       8D     92
     124      65       1       1       0       0       0       001000000D     93
     124       0       0       2       0                   XFORM      19D     94
     100      67       1       1       0       0      93       001010000D     95
     100       0      -1       1       0                     ARC      19D     96
     124      68       1       1       0       0       0       001000000D     97
     124       0       0       2       0                   XFORM      20D     98
     100      70       1       1       0       0      97       001010000D     99
     100       0      -1       1       0                     ARC      20D    100
     124      71       1       1       0       0       0       001000000D    101
     124       0       0       3       0                   XFORM      21D    102
     100      74       1       1       0       0     101       001010000D    103
     100       0      -1       1       0                     ARC      21D    104
     124      75       1       1       0       0       0       001000000D    105
     124       0       0       2       0                   XFORM      22D    106
     100      77       1       1       0       0     105       001010000D    107
     100       0      -1       1       0                     ARC      22D    108
     124      78       1       1       0       0       0       001000000D    109
     124       0       0       1       0                   XFORM      23D    110
     100      79       1       1       0       0     109       001010000D    111
     100       0      -1       1       0                     ARC      23D    112
     124      80       1       1       0       0       0       001000000D    113
     124       0       0       1       0                   XFORM      24D    114
     100      81       1       1       0       0     113       001010000D    115
     100       0      -1       1       0                     ARC      24D    116
     124      82       1       1       0       0       0       001000000D    117
     124       0       0       2       0                   XFORM      25D    118
     100      84       1       1       0       0     117       001010000D    119
     100       0      -1       1       0                     ARC      25D    120
     124      85       1       1       0       0       0       001000000D    121
     124       0       0       3       0                   XFORM      26D    122
     100      88       1       1       0       0     121       001010000D    123
     100       0      -1       2       0                     ARC      26D    124
     124      90       1       1       0       0       0       001000000D    125
     124       0       0       2       0                   XFORM      27D    126
     100      92       1       1       0       0     125       001010000D    127
     100       0      -1       1       0                     ARC      27D    128
     124      93       1       1       0       0       0       001000000D    129
     124       0       0       3       0                   XFORM      28D    130
     100      96       1       1       0       0     129       001010000D    131
     100       0      -1       2       0                     ARC      28D    132
     124      98       1       1       0       0       0       001000000D    133
     124       0       0       3       0                   XFORM      29D    134
     100     101       1       1       0       0     133       001010000D    135
     100       0      -1       2       0                     ARC      29D    136
     124     103       1       1       0       0       0       001000000D    137
     124       0       0       2       0                   XFORM      30D    138
     100     105       1       1       0       0     137       001010000D    139
     100       0      -1       1       0                     ARC      30D    140
     124     106       1       1       0       0       0       001000000D    141
     124       0       0       3       0                   XFORM      31D    142
     100     109       1       1       0       0     141       001010000D    143
     100       0      -1       2       0                     ARC      31D    144
     124     111       1       1       0       0       0       001000000D    145
     124       0       0       2       0                   XFORM      32D    146
     100     113       1       1       0       0     145       001010000D    147
     100       0      -1       1       0                     ARC      32D    148
     124     114       1       1       0       0       0       001000000D    149
     124       0       0       2       0                   XFORM      33D    150
     100     116       1       1       0       0     149       001010000D    151
     100       0      -1       1       0                     ARC      33D    152
     124     117       1       1       0       0       0       001000000D    153
     124       0       0       2       0                   XFORM      34D    154
     100     119       1       1       0       0     153       001010000D    155
     100       0      -1       2       0                     ARC      34D    156
     124     121       1       1       0       0       0       001000000D    157
     124       0       0       2       0                   XFORM      35D    158
     100     123       1       1       0       0     157       001010000D    159
     100       0      -1       1       0                     ARC      35D    160
     124     124       1       1       0       0       0       001000000D    161
     124       0       0       2       0                   XFORM      36D    162
     100     126       1       1       0       0     161       001010000D    163
     100       0      -1       2       0                     ARC      36D    164
     502     128       1       1       0       0       0       001010000D    165
     502       0      -1      13       1                  VERTEX       1D    166
     504     141       1       1       0       0       0       000010001D    167
     504       0      -1      12       1                    EDGE       1D    168
     110     153       1       1       0       0       0       001010000D    169
     110       0      -1       1       0                    LINE       9D    170
     110     154       1       1       0       0       0       001010000D    171
     110       0      -1       1       0                    LINE      10D    172
     120     155       1       1       0       0       0       001010000D    173
     120       0      -1       1       0                    SREV       1D    174
     508     156       1       1       0       0       0       001010000D    175
     508       0       0       1       1                EDGELOOP       1D    176
     510     157       1       1       0       0       0       000010000D    177
     510       0      -1       1       1                    FACE       1D    178
     110     158       1       1       0       0       0       001010000D    179
     110       0      -1       1       0                    LINE      11D    180
     110     159       1       1       0       0       0       001010000D    181
     110       0      -1       1       0                    LINE      12D    182
     120     160       1       1       0       0       0       001010000D    183
     120       0      -1       1       0                    SREV       2D    184
     508     161       1       1       0       0       0       001010000D    185
     508       0       0       1       1                EDGELOOP       2D    186
     510     162       1       1       0       0       0       000010000D    187
     510       0      -1       1       1                    FACE       2D    188
     128     163       1       1       0       0       0       001010000D    189
     128       0      -1       4       0                  SPLSRF       1D    190
     508     167       1       1       0       0       0       001010000D    191
     508       0       0       1       1                EDGELOOP       3D    192
     508     168       1       1       0       0       0       001010000D    193
     508       0       0       1       1                EDGELOOP       4D    194
     510     169       1       1       0       0       0       000010000D    195
     510       0      -1       1       1                    FACE       3D    196
     110     170       1       1       0       0       0       001010000D    197
     110       0      -1       1       0                    LINE      13D    198
     110     171       1       1       0       0       0       001010000D    199
     110       0      -1       1       0                    LINE      14D    200
     120     172       1       1       0       0       0       001010000D    201
     120       0      -1       1       0                    SREV       3D    202
     508     173       1       1       0       0       0       001010000D    203
     508       0       0       1       1                EDGELOOP       5D    204
     510     174       1       1       0       0       0       000010000D    205
     510       0      -1       1       1                    FACE       4D    206
     110     175       1       1       0       0       0       001010000D    207
     110       0      -1       1       0                    LINE      15D    208
     110     176       1       1       0       0       0       001010000D    209
     110       0      -1       1       0                    LINE      16D    210
     120     177       1       1       0       0       0       001010000D    211
     120       0      -1       1       0                    SREV       4D    212
     508     178       1       1       0       0       0       001010000D    213
     508       0       0       1       1                EDGELOOP       6D    214
     510     179       1       1       0       0       0       000010000D    215
     510       0      -1       1       1                    FACE       5D    216
     128     180       1       1       0       0       0       001010000D    217
     128       0      -1       5       0                  SPLSRF       2D    218
     508     185       1       1       0       0       0       001010000D    219
     508       0       0       1       1                EDGELOOP       7D    220
     508     186       1       1       0       0       0       001010000D    221
     508       0       0       1       1                EDGELOOP       8D    222
     510     187       1       1       0       0       0       000010000D    223
     510       0      -1       1       1                    FACE       6D    224
     110     188       1       1       0       0       0       001010000D    225
     110       0      -1       1       0                    LINE      17D    226
     110     189       1       1       0       0       0       001010000D    227
     110       0      -1       1       0                    LINE      18D    228
     120     190       1       1       0       0       0       001010000D    229
     120       0      -1       1       0                    SREV       5D    230
     508     191       1       1       0       0       0       001010000D    231
     508       0       0       1       1                EDGELOOP       9D    232
     510     192       1       1       0       0       0       000010000D    233
     510       0      -1       1       1                    FACE       7D    234
     110     193       1       1       0       0       0       001010000D    235
     110       0      -1       1       0                    LINE      19D    236
     110     194       1       1       0       0       0       001010000D    237
     110       0      -1       1       0                    LINE      20D    238
     120     195       1       1       0       0       0       001010000D    239
     120       0      -1       1       0                    SREV       6D    240
     508     196       1       1       0       0       0       001010000D    241
     508       0       0       1       1                EDGELOOP      10D    242
     510     197       1       1       0       0       0       000010000D    243
     510       0      -1       1       1                    FACE       8D    244
     128     198       1       1       0       0       0       001010000D    245
     128       0      -1       5       0                  SPLSRF       3D    246
     508     203       1       1       0       0       0       001010000D    247
     508       0       0       1       1                EDGELOOP      11D    248
     508     204       1       1       0       0       0       001010000D    249
     508       0       0       1       1                EDGELOOP      12D    250
     510     205       1       1       0       0       0       000010000D    251
     510       0      -1       1       1                    FACE       9D    252
     110     206       1       1       0       0       0       001010000D    253
     110       0      -1       1       0                    LINE      21D    254
     124     207       1       1       0       0       0       001000000D    255
     124       0       0       4       0                   XFORM      37D    256
     100     211       1       1       0       0     255       001010000D    257
     100       0      -1       1       0                     ARC      37D    258
     120     212       1       1       0       0       0       001010000D    259
     120       0      -1       1       0                    SREV       7D    260
     508     213       1       1       0       0       0       001010000D    261
     508       0       0       1       1                EDGELOOP      13D    262
     510     214       1       1       0       0       0       000010000D    263
     510       0      -1       1       1                    FACE      10D    264
     110     215       1       1       0       0       0       001010000D    265
     110       0      -1       1       0                    LINE      22D    266
     124     216       1       1       0       0       0       001000000D    267
     124       0       0       4       0                   XFORM      38D    268
     100     220       1       1       0       0     267       001010000D    269
     100       0      -1       1       0                     ARC      38D    270
     120     221       1       1       0       0       0       001010000D    271
     120       0      -1       1       0                    SREV       8D    272
     508     222       1       1       0       0       0       001010000D    273
     508       0       0       1       1                EDGELOOP      14D    274
     510     223       1       1       0       0       0       000010000D    275
     510       0      -1       1       1                    FACE      11D    276
     110     224       1       1       0       0       0       001010000D    277
     110       0      -1       1       0                    LINE      23D    278
     110     225       1       1       0       0       0       001010000D    279
     110       0      -1       1       0                    LINE      24D    280
     120     226       1       1       0       0       0       001010000D    281
     120       0      -1       1       0                    SREV       9D    282
     508     227       1       1       0       0       0       001010000D    283
     508       0       0       1       1                EDGELOOP      15D    284
     510     228       1       1       0       0       0       000010000D    285
     510       0      -1       1       1                    FACE      12D    286
     110     229       1       1       0       0       0       001010000D    287
     110       0      -1       1       0                    LINE      25D    288
     110     230       1       1       0       0       0       001010000D    289
     110       0      -1       1       0                    LINE      26D    290
     120     231       1       1       0       0       0       001010000D    291
     120       0      -1       1       0                    SREV      10D    292
     508     232       1       1       0       0       0       001010000D    293
     508       0       0       1       1                EDGELOOP      16D    294
     510     233       1       1       0       0       0       000010000D    295
     510       0      -1       1       1                    FACE      13D    296
     110     234       1       1       0       0       0       001010000D    297
     110       0      -1       1       0                    LINE      27D    298
     124     235       1       1       0       0       0       001000000D    299
     124       0       0       4       0                   XFORM      39D    300
     100     239       1       1       0       0     299       001010000D    301
     100       0      -1       1       0                     ARC      39D    302
     120     240       1       1       0       0       0       001010000D    303
     120       0      -1       1       0                    SREV      11D    304
     508     241       1       1       0       0       0       001010000D    305
     508       0       0       1       1                EDGELOOP      17D    306
     510     242       1       1       0       0       0       000010000D    307
     510       0      -1       1       1                    FACE      14D    308
     110     243       1       1       0       0       0       001010000D    309
     110       0      -1       1       0                    LINE      28D    310
     124     244       1       1       0       0       0       001000000D    311
     124       0       0       4       0                   XFORM      40D    312
     100     248       1       1       0       0     311       001010000D    313
     100       0      -1       1       0                     ARC      40D    314
     120     249       1       1       0       0       0       001010000D    315
     120       0      -1       1       0                    SREV      12D    316
     508     250       1       1       0       0       0       001010000D    317
     508       0       0       1       1                EDGELOOP      18D    318
     510     251       1       1       0       0       0       000010000D    319
     510       0      -1       1       1                    FACE      15D    320
     128     252       1       1       0       0       0       001010000D    321
     128       0      -1       4       0                  SPLSRF       4D    322
     508     256       1       1       0       0       0       001010000D    323
     508       0       0       1       1                EDGELOOP      19D    324
     508     257       1       1       0       0       0       001010000D    325
     508       0       0       1       1                EDGELOOP      20D    326
     510     258       1       1       0       0       0       000010000D    327
     510       0      -1       1       1                    FACE      16D    328
     110     259       1       1       0       0       0       001010000D    329
     110       0      -1       1       0                    LINE      29D    330
     124     260       1       1       0       0       0       001000000D    331
     124       0       0       3       0                   XFORM      41D    332
     100     263       1       1       0       0     331       001010000D    333
     100       0      -1       2       0                     ARC      41D    334
     120     265       1       1       0       0       0       001010000D    335
     120       0      -1       1       0                    SREV      13D    336
     508     266       1       1       0       0       0       001010000D    337
     508       0       0       1       1                EDGELOOP      21D    338
     510     267       1       1       0       0       0       000010000D    339
     510       0      -1       1       1                    FACE      17D    340
     110     268       1       1       0       0       0       001010000D    341
     110       0      -1       1       0                    LINE      30D    342
     124     269       1       1       0       0       0       001000000D    343
     124       0       0       3       0                   XFORM      42D    344
     100     272       1       1       0       0     343       001010000D    345
     100       0      -1       2       0                     ARC      42D    346
     120     274       1       1       0       0       0       001010000D    347
     120       0      -1       1       0                    SREV      14D    348
     508     275       1       1       0       0       0       001010000D    349
     508       0       0       1       1                EDGELOOP      22D    350
     510     276       1       1       0       0       0       000010000D    351
     510       0      -1       1       1                    FACE      18D    352
     110     277       1       1       0       0       0       001010000D    353
     110       0      -1       1       0                    LINE      31D    354
     124     278       1       1       0       0       0       001000000D    355
     124       0       0       3       0                   XFORM      43D    356
     100     281       1       1       0       0     355       001010000D    357
     100       0      -1       2       0                     ARC      43D    358
     120     283       1       1       0       0       0       001010000D    359
     120       0      -1       1       0                    SREV      15D    360
     508     284       1       1       0       0       0       001010000D    361
     508       0       0       1       1                EDGELOOP      23D    362
     510     285       1       1       0       0       0       000010000D    363
     510       0      -1       1       1                    FACE      19D    364
     110     286       1       1       0       0       0       001010000D    365
     110       0      -1       1       0                    LINE      32D    366
     124     287       1       1       0       0       0       001000000D    367
     124       0       0       3       0                   XFORM      44D    368
     100     290       1       1       0       0     367       001010000D    369
     100       0      -1       2       0                     ARC      44D    370
     120     292       1       1       0       0       0       001010000D    371
     120       0      -1       1       0                    SREV      16D    372
     508     293       1       1       0       0       0       001010000D    373
     508       0       0       1       1                EDGELOOP      24D    374
     510     294       1       1       0       0       0       000010000D    375
     510       0      -1       1       1                    FACE      20D    376
     110     295       1       1       0       0       0       001010000D    377
     110       0      -1       1       0                    LINE      33D    378
     124     296       1       1       0       0       0       001000000D    379
     124       0       0       3       0                   XFORM      45D    380
     100     299       1       1       0       0     379       001010000D    381
     100       0      -1       2       0                     ARC      45D    382
     120     301       1       1       0       0       0       001010000D    383
     120       0      -1       1       0                    SREV      17D    384
     508     302       1       1       0       0       0       001010000D    385
     508       0       0       1       1                EDGELOOP      25D    386
     510     303       1       1       0       0       0       000010000D    387
     510       0      -1       1       1                    FACE      21D    388
     110     304       1       1       0       0       0       001010000D    389
     110       0      -1       1       0                    LINE      34D    390
     124     305       1       1       0       0       0       001000000D    391
     124       0       0       3       0                   XFORM      46D    392
     100     308       1       1       0       0     391       001010000D    393
     100       0      -1       2       0                     ARC      46D    394
     120     310       1       1       0       0       0       001010000D    395
     120       0      -1       1       0                    SREV      18D    396
     508     311       1       1       0       0       0       001010000D    397
     508       0       0       1       1                EDGELOOP      26D    398
     510     312       1       1       0       0       0       000010000D    399
     510       0      -1       1       1                    FACE      22D    400
     514     313       1       1       0       0       0       000010000D    401
     514       0      -1       3       1                   SHELL       1D    402
     186     316       1       1       0       0       0       000000000D    403
     186       0      -1       1       0                    MSBR       1D    404
314,3.737864077670D1,3.737864077670D1,3.737864077670D1;                1P      1
314,8.784D1,9.49D1,1D2;                                                3P      2
124,1D0,0D0,0D0,0D0,0D0,0D0,1D0,8.95D1,0D0,-1D0,0D0,0D0;               5P      3
100,0D0,0D0,0D0,1.56D1,0D0,-1.56D1,0D0;                                7P      4
110,1.56D1,8.95D1,0D0,1.56D1,5.279411764706D1,0D0;                     9P      5
124,1D0,0D0,0D0,0D0,0D0,0D0,-1D0,8.95D1,0D0,1D0,0D0,0D0;              11P      6
100,0D0,0D0,0D0,1.56D1,0D0,-1.56D1,0D0;                               13P      7
110,-1.56D1,8.95D1,0D0,-1.56D1,5.279411764706D1,0D0;                  15P      8
124,1D0,0D0,0D0,0D0,0D0,0D0,1D0,8.95D1,0D0,-1D0,0D0,0D0;              17P      9
100,0D0,0D0,0D0,2.1D1,0D0,-2.1D1,0D0;                                 19P     10
124,1D0,0D0,0D0,0D0,0D0,0D0,-1D0,8.95D1,0D0,1D0,0D0,0D0;              21P     11
100,0D0,0D0,0D0,2.1D1,0D0,-2.1D1,0D0;                                 23P     12
124,1D0,0D0,0D0,0D0,0D0,0D0,1D0,3.627939979239D1,0D0,-1D0,0D0,        25P     13
0D0;                                                                  25P     14
100,0D0,0D0,0D0,2.1D1,0D0,-2.1D1,0D0;                                 27P     15
124,1D0,0D0,0D0,0D0,0D0,0D0,1D0,2.627939979239D1,0D0,-1D0,0D0,        29P     16
0D0;                                                                  29P     17
100,0D0,0D0,0D0,2.1D1,0D0,-2.1D1,0D0;                                 31P     18
124,1D0,0D0,0D0,0D0,0D0,0D0,1D0,-4.547473508865D-13,0D0,-1D0,         33P     19
0D0,0D0;                                                              33P     20
100,0D0,0D0,0D0,2.1D1,0D0,-2.1D1,0D0;                                 35P     21
124,1D0,0D0,0D0,0D0,0D0,0D0,1D0,3.627939979239D1,0D0,-1D0,0D0,        37P     22
0D0;                                                                  37P     23
100,0D0,0D0,0D0,1.7D1,0D0,-1.7D1,0D0;                                 39P     24
124,-1D0,0D0,0D0,0D0,0D0,0D0,1D0,3.627939979239D1,0D0,1D0,0D0,        41P     25
0D0;                                                                  41P     26
100,0D0,0D0,0D0,1.7D1,0D0,-1.7D1,0D0;                                 43P     27
124,-1D0,0D0,0D0,0D0,0D0,0D0,1D0,3.627939979239D1,0D0,1D0,0D0,        45P     28
0D0;                                                                  45P     29
100,0D0,0D0,0D0,2.1D1,0D0,-2.1D1,0D0;                                 47P     30
110,-2.1D1,3.627939979239D1,0D0,-2.1D1,8.95D1,0D0;                    49P     31
110,2.1D1,3.627939979239D1,0D0,2.1D1,8.95D1,0D0;                      51P     32
124,-1D0,0D0,0D0,0D0,0D0,0D0,1D0,2.627939979239D1,0D0,1D0,0D0,        53P     33
0D0;                                                                  53P     34
100,0D0,0D0,0D0,2.1D1,0D0,-2.1D1,0D0;                                 55P     35
110,2.1D1,0D0,0D0,2.1D1,2.627939979239D1,0D0;                         57P     36
124,1D0,0D0,0D0,0D0,0D0,0D0,-1D0,-4.547473508865D-13,0D0,1D0,         59P     37
0D0,0D0;                                                              59P     38
100,0D0,0D0,0D0,2.1D1,0D0,-2.1D1,0D0;                                 61P     39
110,-2.1D1,0D0,0D0,-2.1D1,2.627939979239D1,0D0;                       63P     40
124,1D0,0D0,0D0,0D0,0D0,0D0,1D0,2.627939979239D1,0D0,-1D0,0D0,        65P     41
0D0;                                                                  65P     42
100,0D0,0D0,0D0,1.7D1,0D0,-1.7D1,0D0;                                 67P     43
124,-1D0,0D0,0D0,0D0,0D0,0D0,1D0,2.627939979239D1,0D0,1D0,0D0,        69P     44
0D0;                                                                  69P     45
100,0D0,0D0,0D0,1.7D1,0D0,-1.7D1,0D0;                                 71P     46
124,-2.451372438372D-13,-1D0,2.538733112623D-13,1.7D1,-1D0,           73P     47
2.451372438372D-13,0D0,2.927939979239D1,0D0,-2.538733112623D-13,      73P     48
-1D0,4.315853230352D-12;                                              73P     49
100,0D0,0D0,0D0,3D0,0D0,7.355954285316D-13,3D0;                       75P     50
124,2.451372438372D-13,1D0,-2.546313854213D-13,-1.7D1,-1D0,           77P     51
2.451372438372D-13,0D0,2.927939979239D1,0D0,2.546313854213D-13,       77P     52
1D0,-4.328731817438D-12;                                              77P     53
100,0D0,0D0,0D0,3D0,0D0,7.355954285316D-13,3D0;                       79P     54
124,-1D0,0D0,0D0,0D0,0D0,0D0,1D0,2.927939979239D1,0D0,1D0,0D0,        81P     55
0D0;                                                                  81P     56
100,0D0,0D0,0D0,1.4D1,0D0,-1.4D1,0D0;                                 83P     57
110,-1.4D1,3.327939979239D1,-2.150161992898D-12,-1.4D1,               85P     58
2.927939979239D1,9.214219665044D-12;                                  85P     59
124,-1D0,0D0,0D0,0D0,0D0,0D0,1D0,3.327939979239D1,0D0,1D0,0D0,        87P     60
0D0;                                                                  87P     61
100,0D0,0D0,0D0,1.4D1,0D0,-1.4D1,0D0;                                 89P     62
110,1.4D1,3.327939979239D1,2.149565248022D-12,1.4D1,                  91P     63
2.927939979239D1,-9.219340568745D-12;                                 91P     64
124,1D0,0D0,0D0,0D0,0D0,0D0,1D0,2.927939979239D1,0D0,-1D0,0D0,        93P     65
0D0;                                                                  93P     66
100,0D0,0D0,0D0,1.4D1,0D0,-1.4D1,0D0;                                 95P     67
124,1D0,0D0,0D0,0D0,0D0,0D0,1D0,3.327939979239D1,0D0,-1D0,0D0,        97P     68
0D0;                                                                  97P     69
100,0D0,0D0,0D0,1.4D1,0D0,-1.4D1,0D0;                                 99P     70
124,-1D0,0D0,3.852907576318D-12,1.7D1,0D0,1D0,0D0,                   101P     71
3.327939979239D1,-3.852907576318D-12,0D0,-1D0,                       101P     72
6.549943920575D-11;                                                  101P     73
100,0D0,0D0,0D0,3D0,0D0,8.421768388956D-13,3D0;                      103P     74
124,1D0,0D0,-3.853247582120D-12,-1.7D1,0D0,1D0,0D0,                  105P     75
3.327939979239D1,3.853247582120D-12,0D0,1D0,-6.550521236548D-11;     105P     76
100,0D0,0D0,0D0,3D0,0D0,8.421768388956D-13,3D0;                      107P     77
124,1D0,0D0,0D0,0D0,0D0,0D0,1D0,0D0,0D0,-1D0,0D0,0D0;                109P     78
100,0D0,0D0,0D0,1.688374249696D1,0D0,-1.688374249696D1,0D0;          111P     79
124,1D0,0D0,0D0,0D0,0D0,0D0,-1D0,0D0,0D0,1D0,0D0,0D0;                113P     80
100,0D0,0D0,0D0,1.688374249696D1,0D0,-1.688374249696D1,0D0;          115P     81
124,1D0,0D0,0D0,0D0,0D0,0D0,1D0,2.646753499103D1,0D0,-1D0,0D0,       117P     82
0D0;                                                                 117P     83
100,0D0,0D0,0D0,1.011018803040D1,0D0,-1.011018803040D1,0D0;          119P     84
124,9.447568422147D-1,3.277720382956D-1,0D0,-1.448087414769D2,       121P     85
3.277720382956D-1,-9.447568422147D-1,0D0,-2.727972676591D1,0D0,      121P     86
0D0,-1D0,0D0;                                                        121P     87
100,0D0,0D0,0D0,1.639775681794D2,0D0,1.617016122152D2,               123P     88
2.722556653334D1;                                                    123P     89
124,1D0,0D0,0D0,0D0,0D0,0D0,-1D0,2.646753499103D1,0D0,1D0,0D0,       125P     90
0D0;                                                                 125P     91
100,0D0,0D0,0D0,1.011018803040D1,0D0,-1.011018803040D1,0D0;          127P     92
124,-9.447568422147D-1,-3.277720382956D-1,0D0,1.448087414769D2,      129P     93
3.277720382956D-1,-9.447568422147D-1,0D0,-2.727972676591D1,0D0,      129P     94
0D0,1D0,4.657404340802D-14;                                          129P     95
100,0D0,0D0,0D0,1.639775681794D2,0D0,1.617016122152D2,               131P     96
2.722556653334D1;                                                    131P     97
124,-8.420153955274D-1,-5.394534953959D-1,0D0,2.397971216230D1,      133P     98
5.394534953959D-1,-8.420153955274D-1,0D0,3.127939979239D1,0D0,       133P     99
0D0,1D0,0D0;                                                         133P    100
100,0D0,0D0,0D0,1.468052255582D1,0D0,9.082575561227D0,               135P    101
1.153362751638D1;                                                    135P    102
124,1D0,0D0,0D0,0D0,0D0,0D0,-1D0,3.919885899937D1,0D0,1D0,0D0,       137P    103
0D0;                                                                 137P    104
100,0D0,0D0,0D0,1.161848615592D1,0D0,-1.161848615592D1,0D0;          139P    105
124,8.420153955274D-1,5.394534953959D-1,0D0,-2.397971216230D1,       141P    106
5.394534953959D-1,-8.420153955274D-1,0D0,3.127939979239D1,0D0,       141P    107
0D0,-1D0,0D0;                                                        141P    108
100,0D0,0D0,0D0,1.468052255582D1,0D0,9.082575561227D0,               143P    109
1.153362751638D1;                                                    143P    110
124,1D0,0D0,0D0,0D0,0D0,0D0,1D0,3.919885899937D1,0D0,-1D0,0D0,       145P    111
0D0;                                                                 145P    112
100,0D0,0D0,0D0,1.161848615592D1,0D0,-1.161848615592D1,0D0;          147P    113
124,1D0,0D0,0D0,0D0,0D0,0D0,1D0,5.279411764706D1,0D0,-1D0,0D0,       149P    114
0D0;                                                                 149P    115
100,0D0,0D0,0D0,1.56D1,0D0,-1.56D1,0D0;                              151P    116
124,1D0,0D0,0D0,-9.601910384717D0,0D0,-1D0,0D0,5.279411764706D1,     153P    117
0D0,0D0,-1D0,0D0;                                                    153P    118
100,0D0,0D0,0D0,2.520191038472D1,0D0,2.122039654063D1,               155P    119
1.359525864769D1;                                                    155P    120
124,1D0,0D0,0D0,0D0,0D0,0D0,-1D0,5.279411764706D1,0D0,1D0,0D0,       157P    121
0D0;                                                                 157P    122
100,0D0,0D0,0D0,1.56D1,0D0,-1.56D1,0D0;                              159P    123
124,-1D0,0D0,0D0,9.601910384717D0,0D0,-1D0,0D0,5.279411764706D1,     161P    124
0D0,0D0,1D0,0D0;                                                     161P    125
100,0D0,0D0,0D0,2.520191038472D1,0D0,2.122039654063D1,               163P    126
1.359525864769D1;                                                    163P    127
502,26,1.56D1,8.95D1,0D0,1.56D1,5.279411764706D1,0D0,                165P    128
1.161848615592D1,3.919885899937D1,0D0,1.011018803040D1,              165P    129
2.646753499103D1,0D0,1.688374249696D1,0D0,0D0,-1.56D1,8.95D1,        165P    130
0D0,-1.56D1,5.279411764706D1,0D0,-1.161848615592D1,                  165P    131
3.919885899937D1,0D0,-1.011018803040D1,2.646753499103D1,0D0,         165P    132
-1.688374249696D1,0D0,0D0,2.1D1,-4.547473508865D-13,0D0,-2.1D1,      165P    133
-4.547473508865D-13,0D0,2.1D1,8.95D1,0D0,-2.1D1,8.95D1,0D0,          165P    134
2.1D1,3.627939979239D1,0D0,-2.1D1,3.627939979239D1,0D0,2.1D1,        165P    135
2.627939979239D1,0D0,-2.1D1,2.627939979239D1,0D0,1.7D1,              165P    136
2.627939979239D1,0D0,-1.7D1,2.627939979239D1,0D0,1.4D1,              165P    137
2.927939979239D1,0D0,-1.4D1,2.927939979239D1,0D0,1.4D1,              165P    138
3.327939979239D1,0D0,-1.4D1,3.327939979239D1,0D0,1.7D1,              165P    139
3.627939979239D1,0D0,-1.7D1,3.627939979239D1,0D0;                    165P    140
504,44,9,165,1,165,2,155,165,2,165,3,135,165,3,165,4,123,165,4,      167P    141
165,5,15,165,6,165,7,163,165,7,165,8,143,165,8,165,9,131,165,9,      167P    142
165,10,151,165,2,165,7,147,165,3,165,8,119,165,4,165,9,159,165,      167P    143
2,165,7,139,165,3,165,8,127,165,4,165,9,111,165,5,165,10,115,        167P    144
165,5,165,10,7,165,1,165,6,35,165,11,165,12,19,165,13,165,14,13,     167P    145
165,1,165,6,61,165,11,165,12,23,165,13,165,14,27,165,15,165,16,      167P    146
31,165,17,165,18,47,165,16,165,15,55,165,18,165,17,57,165,11,        167P    147
165,17,51,165,15,165,13,63,165,12,165,18,49,165,16,165,14,67,        167P    148
165,19,165,20,95,165,21,165,22,71,165,20,165,19,83,165,22,165,       167P    149
21,99,165,23,165,24,39,165,25,165,26,89,165,24,165,23,43,165,26,     167P    150
165,25,91,165,23,165,21,85,165,24,165,22,79,165,20,165,22,75,        167P    151
165,19,165,21,107,165,24,165,26,103,165,23,165,25;                   167P    152
110,0D0,-2.244907783517D3,0D0,0D0,-2.243907783517D3,0D0;             169P    153
110,1.56D1,5.206D1,0D0,1.56D1,9.023411764706D1,0D0;                  171P    154
120,169,171,-6.283185307180D-2,3.204424506662D0;                     173P    155
508,4,0,167,1,1,0,0,167,9,1,0,0,167,5,0,0,0,167,17,0,0;              175P    156
510,173,1,0,175;                                                     177P    157
110,0D0,-2.244907783517D3,0D0,0D0,-2.243907783517D3,0D0;             179P    158
110,1.56D1,5.206D1,0D0,1.56D1,9.023411764706D1,0D0;                  181P    159
120,179,181,-3.204424506662D0,6.283185307180D-2;                     183P    160
508,4,0,167,1,0,0,0,167,20,1,0,0,167,5,1,0,0,167,12,0,0;             185P    161
510,183,1,0,185;                                                     187P    162
128,1,1,1,1,0,0,1,0,0,-2.184D1,-2.184D1,2.184D1,2.184D1,             189P    163
-2.184D1,-2.184D1,2.184D1,2.184D1,1D0,1D0,1D0,1D0,-2.184D1,          189P    164
8.95D1,2.184D1,2.184D1,8.95D1,2.184D1,-2.184D1,8.95D1,-2.184D1,      189P    165
2.184D1,8.95D1,-2.184D1,-2.184D1,2.184D1,-2.184D1,2.184D1;           189P    166
508,2,0,167,19,0,0,0,167,22,1,0;                                     191P    167
508,2,0,167,20,0,0,0,167,17,1,0;                                     193P    168
510,189,2,0,191,193;                                                 195P    169
110,0D0,-2.244907783517D3,0D0,0D0,-2.243907783517D3,0D0;             197P    170
110,2.1D1,-1.79D0,0D0,2.1D1,9.129D1,0D0;                             199P    171
120,197,199,-6.283185307180D-2,3.204424506662D0;                     201P    172
508,4,0,167,23,0,0,0,167,28,1,0,0,167,19,1,0,0,167,30,0,0;           203P    173
510,201,1,0,203;                                                     205P    174
110,0D0,-2.244907783517D3,0D0,0D0,-2.243907783517D3,0D0;             207P    175
110,2.1D1,-1.79D0,0D0,2.1D1,9.129D1,0D0;                             209P    176
120,207,209,-6.283185307180D-2,3.204424506662D0;                     211P    177
508,4,0,167,24,1,0,0,167,29,0,0,0,167,18,0,0,0,167,27,1,0;           213P    178
510,211,1,0,213;                                                     215P    179
128,1,1,1,1,0,0,1,0,0,-2.184D1,-2.184D1,2.184D1,2.184D1,             217P    180
-2.184D1,-2.184D1,2.184D1,2.184D1,1D0,1D0,1D0,1D0,-2.184D1,          217P    181
3.627939979239D1,2.184D1,2.184D1,3.627939979239D1,2.184D1,           217P    182
-2.184D1,3.627939979239D1,-2.184D1,2.184D1,3.627939979239D1,         217P    183
-2.184D1,-2.184D1,2.184D1,-2.184D1,2.184D1;                          217P    184
508,2,0,167,23,1,0,0,167,25,1,0;                                     219P    185
508,2,0,167,36,0,0,0,167,38,0,0;                                     221P    186
510,217,2,0,219,221;                                                 223P    187
110,0D0,-2.244907783517D3,0D0,0D0,-2.243907783517D3,0D0;             225P    188
110,2.1D1,-1.79D0,0D0,2.1D1,9.129D1,0D0;                             227P    189
120,225,227,-3.204424506662D0,6.283185307180D-2;                     229P    190
508,4,0,167,25,0,0,0,167,30,1,0,0,167,22,0,0,0,167,28,0,0;           231P    191
510,229,1,0,231;                                                     233P    192
110,0D0,-2.244907783517D3,0D0,0D0,-2.243907783517D3,0D0;             235P    193
110,2.1D1,-1.79D0,0D0,2.1D1,9.129D1,0D0;                             237P    194
120,235,237,-3.204424506662D0,6.283185307180D-2;                     239P    195
508,4,0,167,26,1,0,0,167,27,0,0,0,167,21,1,0,0,167,29,1,0;           241P    196
510,239,1,0,241;                                                     243P    197
128,1,1,1,1,0,0,1,0,0,-2.184D1,-2.184D1,2.184D1,2.184D1,             245P    198
-2.184D1,-2.184D1,2.184D1,2.184D1,1D0,1D0,1D0,1D0,-2.184D1,          245P    199
2.627939979239D1,2.184D1,2.184D1,2.627939979239D1,2.184D1,           245P    200
-2.184D1,2.627939979239D1,-2.184D1,2.184D1,2.627939979239D1,         245P    201
-2.184D1,-2.184D1,2.184D1,-2.184D1,2.184D1;                          245P    202
508,2,0,167,24,0,0,0,167,26,0,0;                                     247P    203
508,2,0,167,31,1,0,0,167,33,1,0;                                     249P    204
510,245,2,0,247,249;                                                 251P    205
110,0D0,2.927939979239D1,0D0,0D0,3.027939979239D1,0D0;               253P    206
124,-9.990075563532D-1,-4.295029046575D-2,-1.179724111898D-2,        255P    207
1.699881697220D1,4.295327957891D-2,-9.990770819979D-1,0D0,           255P    208
2.927939979239D1,-1.178635323278D-2,-5.067301960433D-4,              255P    209
9.999304101296D-1,2.005530990227D-1;                                 255P    210
100,0D0,0D0,0D0,3D0,0D0,-2.574818233436D-1,2.988930094640D0;         257P    211
120,253,257,-5.103433829282D-2,3.216222021451D0;                     259P    212
508,4,0,167,31,0,0,0,167,42,1,0,0,167,32,1,0,0,167,41,0,0;           261P    213
510,259,1,0,261;                                                     263P    214
110,0D0,2.927939979239D1,0D0,0D0,3.027939979239D1,0D0;               265P    215
124,9.990075563532D-1,4.295029046575D-2,1.179724111898D-2,           267P    216
-1.699881697220D1,4.295327957891D-2,-9.990770819979D-1,0D0,          267P    217
2.927939979239D1,1.178635323278D-2,5.067301960433D-4,                267P    218
-9.999304101296D-1,-2.005530990227D-1;                               267P    219
100,0D0,0D0,0D0,3D0,0D0,-2.574818233436D-1,2.988930094640D0;         269P    220
120,265,269,-5.103433829282D-2,3.216222021451D0;                     271P    221
508,4,0,167,33,0,0,0,167,41,1,0,0,167,34,1,0,0,167,42,0,0;           273P    222
510,271,1,0,273;                                                     275P    223
110,0D0,0D0,0D0,0D0,1D0,0D0;                                         277P    224
110,1.4D1,2.915050029666D1,0D0,1.4D1,3.340829928812D1,0D0;           279P    225
120,277,279,-3.204424506662D0,6.283185307180D-2;                     281P    226
508,4,0,167,34,0,0,0,167,40,0,0,0,167,37,1,0,0,167,39,1,0;           283P    227
510,281,1,0,283;                                                     285P    228
110,0D0,0D0,0D0,0D0,1D0,0D0;                                         287P    229
110,1.4D1,2.915050029666D1,0D0,1.4D1,3.340829928812D1,0D0;           289P    230
120,287,289,-6.283185307180D-2,3.204424506662D0;                     291P    231
508,4,0,167,32,0,0,0,167,39,0,0,0,167,35,1,0,0,167,40,1,0;           293P    232
510,291,1,0,293;                                                     295P    233
110,0D0,3.327939979239D1,0D0,0D0,3.427939979239D1,0D0;               297P    234
124,4.294999519598D-2,-9.990006884898D-1,-1.236617602632D-2,         299P    235
1.699870011067D1,9.990770819979D-1,4.295327957891D-2,0D0,            299P    236
3.327939979239D1,5.311678161806D-4,-1.235476305985D-2,               299P    237
9.999235359219D-1,2.102249924475D-1;                                 299P    238
100,0D0,0D0,0D0,3D0,0D0,-2.574818233436D-1,2.988930094640D0;         301P    239
120,297,301,-5.046536185041D-2,3.216790997890D0;                     303P    240
508,4,0,167,35,0,0,0,167,44,1,0,0,167,36,1,0,0,167,43,0,0;           305P    241
510,303,1,0,305;                                                     307P    242
110,0D0,3.327939979239D1,0D0,0D0,3.427939979239D1,0D0;               309P    243
124,-4.294999519598D-2,9.990006884898D-1,1.236617602632D-2,          311P    244
-1.699870011067D1,9.990770819979D-1,4.295327957891D-2,0D0,           311P    245
3.327939979239D1,-5.311678161806D-4,1.235476305985D-2,               311P    246
-9.999235359219D-1,-2.102249924475D-1;                               311P    247
100,0D0,0D0,0D0,3D0,0D0,-2.574818233436D-1,2.988930094640D0;         313P    248
120,309,313,-5.046536185041D-2,3.216790997890D0;                     315P    249
508,4,0,167,37,0,0,0,167,43,1,0,0,167,38,1,0,0,167,44,0,0;           317P    250
510,315,1,0,317;                                                     319P    251
128,1,1,1,1,0,0,1,0,0,-2.184D1,-2.184D1,2.184D1,2.184D1,             321P    252
-2.184D1,-2.184D1,2.184D1,2.184D1,1D0,1D0,1D0,1D0,-2.184D1,0D0,      321P    253
2.184D1,2.184D1,0D0,2.184D1,-2.184D1,0D0,-2.184D1,2.184D1,0D0,       321P    254
-2.184D1,-2.184D1,2.184D1,-2.184D1,2.184D1;                          321P    255
508,2,0,167,21,0,0,0,167,18,1,0;                                     323P    256
508,2,0,167,15,0,0,0,167,16,1,0;                                     325P    257
510,321,2,0,323,325;                                                 327P    258
110,0D0,-2.727972676591D1,0D0,0D0,-2.627972676591D1,0D0;             329P    259
124,9.866141665604D-1,-1.630720280808D-1,0D0,-1.448087414769D2,      331P    260
1.630720280808D-1,9.866141665604D-1,0D0,-2.727972676591D1,0D0,       331P    261
0D0,1D0,0D0;                                                         331P    262
100,0D0,0D0,0D0,1.639775681794D2,0D0,1.615163601428D2,               333P    263
2.830385613794D1;                                                    333P    264
120,329,333,-6.283185307180D-2,3.204424506662D0;                     335P    265
508,4,0,167,4,1,0,0,167,15,1,0,0,167,8,0,0,0,167,11,0,0;             337P    266
510,335,1,0,337;                                                     339P    267
110,0D0,-2.727972676591D1,0D0,0D0,-2.627972676591D1,0D0;             341P    268
124,9.866141665604D-1,-1.630720280808D-1,0D0,-1.448087414769D2,      343P    269
1.630720280808D-1,9.866141665604D-1,0D0,-2.727972676591D1,0D0,       343P    270
0D0,1D0,0D0;                                                         343P    271
100,0D0,0D0,0D0,1.639775681794D2,0D0,1.615163601428D2,               345P    272
2.830385613794D1;                                                    345P    273
120,341,345,-3.204424506662D0,6.283185307180D-2;                     347P    274
508,4,0,167,4,0,0,0,167,14,1,0,0,167,8,1,0,0,167,16,0,0;             349P    275
510,347,1,0,349;                                                     351P    276
110,0D0,3.127939979239D1,0D0,0D0,3.227939979239D1,0D0;               353P    277
124,-8.321279590031D-1,-5.545836815534D-1,0D0,2.397971216230D1,      355P    278
5.545836815534D-1,-8.321279590031D-1,0D0,3.127939979239D1,0D0,       355P    279
0D0,1D0,0D0;                                                         355P    280
100,0D0,0D0,0D0,1.468052255582D1,0D0,8.659800113858D0,               357P    281
1.185434960257D1;                                                    357P    282
120,353,357,-3.204424506662D0,6.283185307180D-2;                     359P    283
508,4,0,167,3,0,0,0,167,13,1,0,0,167,7,1,0,0,167,14,0,0;             361P    284
510,359,1,0,361;                                                     363P    285
110,0D0,3.127939979239D1,0D0,0D0,3.227939979239D1,0D0;               365P    286
124,-8.321279590031D-1,-5.545836815534D-1,0D0,2.397971216230D1,      367P    287
5.545836815534D-1,-8.321279590031D-1,0D0,3.127939979239D1,0D0,       367P    288
0D0,1D0,0D0;                                                         367P    289
100,0D0,0D0,0D0,1.468052255582D1,0D0,8.659800113858D0,               369P    290
1.185434960257D1;                                                    369P    291
120,365,369,-6.283185307180D-2,3.204424506662D0;                     371P    292
508,4,0,167,3,1,0,0,167,11,1,0,0,167,7,0,0,0,167,10,0,0;             373P    293
510,371,1,0,373;                                                     375P    294
110,0D0,5.279411764706D1,0D0,0D0,5.379411764706D1,0D0;               377P    295
124,8.358133738996D-1,5.490136646847D-1,0D0,-9.601910384717D0,       379P    296
-5.490136646847D-1,8.358133738996D-1,0D0,5.279411764706D1,0D0,       379P    297
0D0,1D0,0D0;                                                         379P    298
100,0D0,0D0,0D0,2.520191038472D1,0D0,2.090505553067D1,               381P    299
1.407533091258D1;                                                    381P    300
120,377,381,-6.283185307180D-2,3.204424506662D0;                     383P    301
508,4,0,167,2,1,0,0,167,10,1,0,0,167,6,0,0,0,167,9,0,0;              385P    302
510,383,1,0,385;                                                     387P    303
110,0D0,5.279411764706D1,0D0,0D0,5.379411764706D1,0D0;               389P    304
124,8.358133738996D-1,5.490136646847D-1,0D0,-9.601910384717D0,       391P    305
-5.490136646847D-1,8.358133738996D-1,0D0,5.279411764706D1,0D0,       391P    306
0D0,1D0,0D0;                                                         391P    307
100,0D0,0D0,0D0,2.520191038472D1,0D0,2.090505553067D1,               393P    308
1.407533091258D1;                                                    393P    309
120,389,393,-3.204424506662D0,6.283185307180D-2;                     395P    310
508,4,0,167,2,0,0,0,167,12,1,0,0,167,6,1,0,0,167,13,0,0;             397P    311
510,395,1,0,397;                                                     399P    312
514,22,177,0,187,0,195,1,205,1,215,1,223,0,233,1,243,1,251,1,        401P    313
263,0,275,0,285,1,295,1,307,0,319,0,327,0,339,0,351,0,363,1,375,     401P    314
1,387,0,399,0;                                                       401P    315
186,401,1,0;                                                         403P    316
S      1G      4D    404P    316                                        T      1
